<svg xmlns="http://www.w3.org/2000/svg" viewBox="0 0 800 600" fill="none">
  <rect width="800" height="600" rx="40" fill="#F5E9DA"/>
  <circle cx="620" cy="150" r="104" fill="#FFF4E2"/>
  <ellipse cx="400" cy="520" rx="250" ry="32" fill="#B98A4B" opacity="0.22"/>
  <rect x="160" y="272" width="126" height="150" rx="28" fill="#FFF7EA"/>
  <rect x="338" y="220" width="126" height="202" rx="28" fill="#FFF1DD"/>
  <rect x="516" y="252" width="126" height="170" rx="28" fill="#FFF7EA"/>
  <rect x="218" y="238" width="10" height="42" rx="5" fill="#5B4230"/>
  <rect x="396" y="186" width="10" height="42" rx="5" fill="#5B4230"/>
  <rect x="574" y="218" width="10" height="42" rx="5" fill="#5B4230"/>
  <path d="M223 184C248 220 240 244 223 252C206 244 198 220 223 184Z" fill="#F0AA4A"/>
  <path d="M401 132C426 168 418 192 401 200C384 192 376 168 401 132Z" fill="#F0AA4A"/>
  <path d="M579 164C604 200 596 224 579 232C562 224 554 200 579 164Z" fill="#F0AA4A"/>
  <path d="M223 202C235 222 232 236 223 240C214 236 211 222 223 202Z" fill="#FFF1C5"/>
  <path d="M401 150C413 170 410 184 401 188C392 184 389 170 401 150Z" fill="#FFF1C5"/>
  <path d="M579 182C591 202 588 216 579 220C570 216 567 202 579 182Z" fill="#FFF1C5"/>
</svg>