<svg xmlns="http://www.w3.org/2000/svg" viewBox="0 0 800 600" fill="none">
  <rect width="800" height="600" rx="40" fill="#F4E6D1"/>
  <circle cx="610" cy="140" r="110" fill="#FBEFD8"/>
  <ellipse cx="400" cy="520" rx="210" ry="34" fill="#D6B48C" opacity="0.35"/>
  <rect x="290" y="170" width="220" height="290" rx="48" fill="#FFF6E7"/>
  <rect x="320" y="182" width="160" height="266" rx="36" fill="#E8D0AE" opacity="0.55"/>
  <rect x="390" y="130" width="20" height="52" rx="10" fill="#5B4230"/>
  <path d="M400 66C444 120 432 158 400 172C368 158 356 120 400 66Z" fill="#F4B14E"/>
  <path d="M400 88C422 122 416 146 400 154C384 146 378 122 400 88Z" fill="#FFF2C7"/>
  <path d="M172 402C246 334 318 340 356 398" stroke="#C99963" stroke-width="14" stroke-linecap="round" opacity="0.55"/>
</svg>